name D:\school\WTK\thesis\model\3dpredictsim\Results\batch_windlass\Pog_s1_tmt_aCst_d00_k500_WL30_ig24.mot
datacolumns 128
datarows 4
range 0.54429441 0.57695208
endheader
time	pelvis_tilt	pelvis_list	pelvis_rotation	pelvis_tx	pelvis_ty	pelvis_tz	hip_flexion_l	hip_adduction_l	hip_rotation_l	hip_flexion_r	hip_adduction_r	hip_rotation_r	knee_angle_l	knee_angle_r	ankle_angle_l	ankle_angle_r	subtalar_angle_l	subtalar_angle_r	tmt_angle_l	tmt_angle_r	mtp_angle_l	mtp_angle_r	lumbar_extension	lumbar_bending	lumbar_rotation	arm_flex_l	arm_add_l	arm_rot_l	arm_flex_r	arm_add_r	arm_rot_r	elbow_flex_l	elbow_flex_r	pro_sup_l	pro_sup_r	glut_med1_l/activation	glut_med2_l/activation	glut_med3_l/activation	glut_min1_l/activation	glut_min2_l/activation	glut_min3_l/activation	semimem_l/activation	semiten_l/activation	bifemlh_l/activation	bifemsh_l/activation	sar_l/activation	add_long_l/activation	add_brev_l/activation	add_mag1_l/activation	add_mag2_l/activation	add_mag3_l/activation	tfl_l/activation	pect_l/activation	grac_l/activation	glut_max1_l/activation	glut_max2_l/activation	glut_max3_l/activation	iliacus_l/activation	psoas_l/activation	quad_fem_l/activation	gem_l/activation	peri_l/activation	rect_fem_l/activation	vas_med_l/activation	vas_int_l/activation	vas_lat_l/activation	med_gas_l/activation	lat_gas_l/activation	soleus_l/activation	tib_post_l/activation	flex_dig_l/activation	flex_hal_l/activation	tib_ant_l/activation	per_brev_l/activation	per_long_l/activation	per_tert_l/activation	ext_dig_l/activation	ext_hal_l/activation	ercspn_l/activation	intobl_l/activation	extobl_l/activation	glut_med1_r/activation	glut_med2_r/activation	glut_med3_r/activation	glut_min1_r/activation	glut_min2_r/activation	glut_min3_r/activation	semimem_r/activation	semiten_r/activation	bifemlh_r/activation	bifemsh_r/activation	sar_r/activation	add_long_r/activation	add_brev_r/activation	add_mag1_r/activation	add_mag2_r/activation	add_mag3_r/activation	tfl_r/activation	pect_r/activation	grac_r/activation	glut_max1_r/activation	glut_max2_r/activation	glut_max3_r/activation	iliacus_r/activation	psoas_r/activation	quad_fem_r/activation	gem_r/activation	peri_r/activation	rect_fem_r/activation	vas_med_r/activation	vas_int_r/activation	vas_lat_r/activation	med_gas_r/activation	lat_gas_r/activation	soleus_r/activation	tib_post_r/activation	flex_dig_r/activation	flex_hal_r/activation	tib_ant_r/activation	per_brev_r/activation	per_long_r/activation	per_tert_r/activation	ext_dig_r/activation	ext_hal_r/activation	ercspn_r/activation	intobl_r/activation	extobl_r/activation	
          0.54429441	         -2.93017651	          1.56924106	         -5.37310939	          0.68036802	          0.85978087	          0.00194136	         31.88069563	          2.11012394	         -2.69255074	        -17.62539634	         -1.00266172	          6.81366767	        -16.30888760	         -7.72112121	          6.10982474	          1.86673810	         -0.03176312	         10.18015105	         -0.21961535	         -6.23471445	          0.76588758	         26.06800794	         -1.40389497	          0.30396035	          1.90388410	         -8.06132651	        -13.48719624	          6.37326106	          4.84231378	        -13.45165487	         14.92759084	         17.82289179	         34.54291933	         86.51662706	         86.51662706	          0.05000017	          0.05000010	          0.05907157	          0.05000006	          0.05000008	          0.05000030	          0.06494499	          0.05907207	          0.08713217	          0.05000026	          0.05000083	          0.09882965	          0.15047754	          0.13060001	          0.15456696	          0.10695155	          0.05907084	          0.05000309	          0.05968177	          0.05907198	          0.05907180	          0.09059802	          0.05000050	          0.05790813	          0.22596292	          0.05000017	          0.05000033	          0.05000026	          0.08611752	          0.09343637	          0.07308707	          0.05000001	          0.05000003	          0.05000000	          0.05236769	          0.05907270	          0.05907380	          0.46437021	          0.33173901	          0.21345242	          0.06629987	          0.52017699	          0.21301287	          0.05924505	          0.12580886	          0.12498247	          0.35126081	          0.09741052	          0.06190139	          0.34394359	          0.21171086	          0.09823884	          0.05000122	          0.05000013	          0.05000010	          0.07069565	          0.09749291	          0.05000062	          0.05000015	          0.05000020	          0.05000053	          0.05000055	          0.27571327	          0.05000072	          0.05000031	          0.05000132	          0.05000096	          0.05000067	          0.33607803	          0.52962988	          0.05000010	          0.05000046	          0.05762473	          0.22420578	          0.05000740	          0.05548409	          0.07369148	          0.30695560	          0.39829325	          0.27245529	          0.24236715	          0.19067068	          0.29457817	          0.05000000	          0.10147575	          0.17764558	          0.05000008	          0.05000001	          0.05000006	          0.05000000	          0.05000001	          0.05000000	
          0.55518030	         -2.92833933	          1.63271343	         -5.63477430	          0.69677094	          0.85902690	          0.00174579	         31.24698448	          2.45829316	         -2.49893767	        -17.55923992	         -1.28417718	          6.58978200	        -15.80661706	         -9.43066916	          5.75357027	          1.03180705	         -0.50231959	         11.07505298	         -0.27474819	         -7.10407673	          0.98324648	         27.42013095	         -1.20994250	          0.09238062	          1.97751022	         -9.07148086	        -13.47409000	          6.19050231	          4.65450987	        -13.45996264	         15.26012283	         17.63263246	         35.58946764	         86.51662706	         86.51662706	          0.05907155	          0.05907160	          0.05000008	          0.05907166	          0.05907163	          0.05907153	          0.05907154	          0.05000056	          0.08329360	          0.05000012	          0.05000019	          0.10139427	          0.22991683	          0.11054399	          0.13083105	          0.11226833	          0.05000006	          0.05245982	          0.05051668	          0.05000045	          0.05000023	          0.14836622	          0.05362071	          0.05000013	          0.33530325	          0.22574697	          0.15046253	          0.05554854	          0.17079813	          0.16783172	          0.14558978	          0.05332097	          0.05195740	          0.05799678	          0.05000000	          0.05000102	          0.05000201	          0.59763029	          0.33769086	          0.18642603	          0.41433716	          0.58607702	          0.33624912	          0.05014684	          0.10648850	          0.10578901	          0.31751587	          0.08245128	          0.05239526	          0.29112454	          0.17919862	          0.08315239	          0.05000102	          0.05000010	          0.05000007	          0.05983898	          0.08252111	          0.10347847	          0.13982008	          0.05000089	          0.05000116	          0.05000029	          0.23337225	          0.07563416	          0.05000070	          0.05000075	          0.05000042	          0.05000036	          0.28446687	          0.47635068	          0.05000007	          0.05000020	          0.05000007	          0.18977470	          0.10313294	          0.10362139	          0.08234314	          0.25981668	          0.33712769	          0.23061455	          0.20514711	          0.16138985	          0.24934014	          0.05000000	          0.08589224	          0.15036476	          0.05000004	          0.05000000	          0.05000004	          0.05000002	          0.05136688	          0.05219864	
          0.56606619	         -2.92160819	          1.70002724	         -5.86925005	          0.71346786	          0.85818219	          0.00155235	         30.51008175	          2.78250924	         -2.25391172	        -17.41360942	         -1.56182396	          6.35256422	        -15.92783931	        -11.29726574	          5.16391535	          0.07076643	         -0.98942549	         11.93241999	         -0.40654194	         -7.86790258	          1.21876332	         28.47553247	         -0.99552796	         -0.13324831	          2.04211492	        -10.09301436	        -13.46556573	          6.05967772	          4.39290345	        -13.47096100	         15.53004527	         17.45485818	         36.60440151	         86.51662706	         86.51662706	          0.05000000	          0.05000005	          0.09774742	          0.05000008	          0.05000007	          0.05000005	          0.05000003	          0.05000005	          0.07050228	          0.05000003	          0.05000019	          0.08582335	          0.19541715	          0.30112880	          0.21520627	          0.12466304	          0.05000047	          0.05907343	          0.05935489	          0.06250915	          0.10001889	          0.12558180	          0.05000007	          0.05000075	          0.39080533	          0.19107921	          0.12735614	          0.06539195	          0.22042158	          0.22614561	          0.19128806	          0.05907170	          0.05907180	          0.05569361	          0.05907157	          0.05000030	          0.05000016	          0.53302803	          0.36631868	          0.20726207	          0.39835378	          0.55321297	          0.28461166	          0.05000000	          0.09013515	          0.08954308	          0.26875525	          0.06978931	          0.05000017	          0.24641684	          0.15167926	          0.07038276	          0.05000089	          0.05000017	          0.05000028	          0.05064957	          0.06984850	          0.19775825	          0.25005158	          0.09845428	          0.05907242	          0.08649616	          0.19753350	          0.06401937	          0.05000038	          0.05000433	          0.05001102	          0.05907079	          0.24078155	          0.42361515	          0.05000119	          0.05000328	          0.05000010	          0.16063117	          0.13596353	          0.13663567	          0.13596316	          0.21991685	          0.28535527	          0.19519926	          0.17364285	          0.13660542	          0.21104922	          0.05000079	          0.07270186	          0.12727346	          0.05000007	          0.07465072	          0.05000038	          0.05344471	          0.05907169	          0.06571094	
          0.57695208	         -2.91130696	          1.77728968	         -6.07325092	          0.73034644	          0.85723652	          0.00137351	         29.60493518	          3.05721875	         -1.98246429	        -17.18957812	         -1.83617565	          6.10375574	        -16.28621118	        -13.30782417	          4.87725622	         -0.98560689	         -1.49032026	         12.71864015	         -1.10841933	         -8.48057942	          1.29126479	         29.06010577	         -0.77013468	         -0.37803881	          2.09525946	        -11.09505265	        -13.46775187	          6.01270368	          4.07341343	        -13.48143306	         15.74108367	         17.25975470	         37.58526354	         86.51662706	         86.51662706	          0.24497061	          0.24986976	          0.29211355	          0.32037679	          0.20261090	          0.16652485	          0.07952075	          0.07240452	          0.08512972	          0.08245074	          0.05907168	          0.07264355	          0.16540711	          0.25488474	          0.18215729	          0.10940264	          0.05000012	          0.05000190	          0.05023991	          0.17325812	          0.14486342	          0.10629637	          0.05000027	          0.05000014	          0.33078971	          0.16173540	          0.20771551	          0.05534977	          0.18657164	          0.19141665	          0.16191213	          0.05000014	          0.05000024	          0.05275277	          0.05000001	          0.05907158	          0.05907154	          0.62061038	          0.36601899	          0.18563219	          0.65136579	          0.63306861	          0.37257495	          0.05028196	          0.09741014	          0.07579203	          0.35879137	          0.05907183	          0.05000000	          0.33078942	          0.12838603	          0.05957416	          0.05284611	          0.05000006	          0.05000004	          0.05000012	          0.05912265	          0.16738873	          0.21165158	          0.08333480	          0.05000101	          0.07321309	          0.16719862	          0.07368805	          0.05000021	          0.05000026	          0.05000016	          0.05000013	          0.20380496	          0.39952964	          0.05000001	          0.05000008	          0.05000005	          0.13596318	          0.11508374	          0.11565266	          0.11508342	          0.18614440	          0.24153350	          0.16522267	          0.14697668	          0.11562710	          0.17863860	          0.08770963	          0.15797095	          0.16321314	          0.18887815	          0.16982039	          0.11508228	          0.06966227	          0.05000010	          0.05561977	
